<svg xmlns="http://www.w3.org/2000/svg" viewBox="0 0 12.22 17.28"><g id="Layer_2" data-name="Layer 2"><g id="Layer_1-2" data-name="Layer 1"><path d="M6.12,0c4.08-.13,7,3.62,5.86,8a19.45,19.45,0,0,1-3.63,6.69c-.6.8-1.25,1.57-1.86,2.36-.26.34-.48.34-.75,0A37.34,37.34,0,0,1,1.2,10.47,8.52,8.52,0,0,1,.13,4.87,5.78,5.78,0,0,1,6.12,0Zm0,16.63c.71-.91,1.37-1.72,2-2.55a19.23,19.23,0,0,0,3.27-5.95c1.35-4.58-2-8.39-6.56-7.5A5.58,5.58,0,0,0,.74,7.72C1.63,11.2,3.92,13.83,6.12,16.63Z"/><path d="M9.65,6A3.54,3.54,0,1,1,6.2,2.33,3.56,3.56,0,0,1,9.65,6ZM6.14,8.88a3,3,0,0,0,3-3,3.08,3.08,0,0,0-2.95-3,3.07,3.07,0,0,0-3.1,3.07A3,3,0,0,0,6.14,8.88Z"/></g></g></svg>