<svg xmlns="http://www.w3.org/2000/svg" viewBox="0 0 21.13 18.17"><g id="Layer_2" data-name="Layer 2"><g id="Layer_1-2" data-name="Layer 1"><path d="M3.1,18.17a.91.91,0,0,1-.62-.23,1.48,1.48,0,0,1-.37-1.11V12.4L.46,12.32,1.48,9a.85.85,0,0,1-.41.37.7.7,0,0,1-.61-.07A1.21,1.21,0,0,1,0,8.14C.31,7,.68,5.8,1.17,4.37A1.74,1.74,0,0,1,3.12,3H5.2A1.86,1.86,0,0,1,7.31,4.59c.13.43.26.86.38,1.28.2.69.41,1.41.66,2.1a11.53,11.53,0,0,0,.9,1.83c.06.1.29.18.44.24h0a.5.5,0,0,0,.25,0h.2c1.78,0,2-.19,2.58-1.95.19-.58.37-1.19.54-1.77s.37-1.22.56-1.83a1.79,1.79,0,0,1,2-1.49h.72c.47,0,1,0,1.43,0a1.68,1.68,0,0,1,1.84,1.18c.51,1.48.93,2.8,1.26,4.06a.94.94,0,0,1-.25.71c-.06.1-.12.19-.16.27l-.08.16-.15-.09-.3-.14c-.25-.12-.52-.23-.62-.46l1.1,3.62L19,12.4v4a1.93,1.93,0,0,0,0,.24,1.13,1.13,0,0,1-.08.69c-.19.28-.56.77-1,.84a.83.83,0,0,1-.69-.16,1,1,0,0,1-.34-.71,1,1,0,0,1-1,.9,1,1,0,0,1-.74-.26,1.37,1.37,0,0,1-.31-1c0-1.09,0-2.16,0-3.29V12.41l-1.66-.1,1-3.46a17.75,17.75,0,0,1-1.48,2.92,1.74,1.74,0,0,0-.19.86c0,1.33,0,2.69,0,4v.23a1.38,1.38,0,0,1-.32,1,1,1,0,0,1-.71.26h0a.94.94,0,0,1-.69-.25,1,1,0,0,1-.26-.56,1.12,1.12,0,0,1-.24.57,1,1,0,0,1-.77.22,1,1,0,0,1-.73-.21c-.25-.26-.32-.76-.28-2.08s0-2.39,0-3.3a1.49,1.49,0,0,0-.17-.79,16.35,16.35,0,0,1-1.56-3L7.9,12.3l-1.63.11V17c0,.76-.38,1.19-1,1.19a.94.94,0,0,1-1-.84,1,1,0,0,1-1,.84ZM.91,12l1.53.08v1.54c0,1.11,0,2.15,0,3.21a1.18,1.18,0,0,0,.26.86.57.57,0,0,0,.45.14c.54,0,.74-.33.73-1V12.12h.6v2.08c0,.9,0,1.83,0,2.75s.54.87.72.87.72,0,.72-.86V12.09L7.46,12l-2-6.69L6,5.14,6,5.28l.06.12a2,2,0,0,1,.12.29,19.89,19.89,0,0,0,2.47,5.88,2,2,0,0,1,.23,1c0,.91,0,2.12,0,3.32a3.53,3.53,0,0,0,.19,1.84c.08.08.22.11.49.11s.43,0,.52-.12.23-.72.19-1.79a5.33,5.33,0,0,1,0-.57c0-.09,0-.17,0-.26V14.9l.57,0v.69c0,.4,0,.81,0,1.22a1.22,1.22,0,0,0,.2.82.58.58,0,0,0,.45.15h0a.65.65,0,0,0,.48-.16,1.12,1.12,0,0,0,.21-.79v-.23c0-1.32,0-2.68,0-4a2,2,0,0,1,.25-1A19.56,19.56,0,0,0,14.83,6,2.8,2.8,0,0,1,15,5.47l.09-.21.06-.16.51.2-2,6.7,1.55.09V13.6c0,1.13,0,2.2,0,3.3a1.06,1.06,0,0,0,.21.76.65.65,0,0,0,.5.17c.5,0,.71-.29.71-.95,0-1.25,0-2.58,0-3.94a3.88,3.88,0,0,1,0-.48l0-.21,0-.16.54.05v5a.77.77,0,0,0,.24.61.47.47,0,0,0,.41.09,1.49,1.49,0,0,0,.76-.7.84.84,0,0,0,0-.47,2.45,2.45,0,0,1,0-.27V12.08L20.2,12l-2-6.7.58-.15.05.15.27.88c.24.78.49,1.6.79,2.37,0,.11.26.21.45.29l.18.08.09-.15c.1-.15.23-.36.21-.45-.34-1.24-.75-2.56-1.25-4a1.38,1.38,0,0,0-1.51-1c-.49,0-1,0-1.45,0h-.72a1.45,1.45,0,0,0-1.7,1.25c-.19.61-.37,1.23-.55,1.83s-.36,1.18-.55,1.78c-.6,1.91-1,2.18-2.9,2.18H10a.83.83,0,0,1-.38,0h0A1.08,1.08,0,0,1,9,10,11.86,11.86,0,0,1,8,8.08c-.24-.7-.46-1.42-.66-2.12-.12-.42-.25-.85-.38-1.27C6.65,3.64,6.27,3.35,5.2,3.34H3.12A1.43,1.43,0,0,0,1.48,4.48C1,5.9.63,7.09.34,8.22A1,1,0,0,0,.63,9,.38.38,0,0,0,1,9a.74.74,0,0,0,.35-.48c.14-.44.28-.89.41-1.33L2.09,6c.06-.17.13-.33.2-.49l.09-.22.06-.15.5.19Z"/><path d="M4.19,3H4.14A1.5,1.5,0,0,1,2.71,1.49a1.47,1.47,0,0,1,.43-1A1.46,1.46,0,0,1,4.19,0h0a1.48,1.48,0,0,1,1,.44,1.43,1.43,0,0,1,.42,1.05A1.45,1.45,0,0,1,5.2,2.54,1.45,1.45,0,0,1,4.19,3Zm0-2.61a1.18,1.18,0,0,0-.82.33,1.13,1.13,0,0,0-.32.82,1.15,1.15,0,0,0,1.1,1.12A1.12,1.12,0,0,0,5,2.3a1.18,1.18,0,0,0,.37-.81A1.12,1.12,0,0,0,5,.68,1.11,1.11,0,0,0,4.19.34Z"/><path d="M16.92,3h0a1.49,1.49,0,0,1-1.45-1.52A1.47,1.47,0,0,1,17,0a1.49,1.49,0,0,1,1.42,1.46,1.5,1.5,0,0,1-.45,1A1.49,1.49,0,0,1,16.92,3Zm0-.34a1.12,1.12,0,0,0,.81-.34,1.13,1.13,0,0,0,.35-.8A1.15,1.15,0,0,0,16.14.64a1.14,1.14,0,0,0-.35.8,1.09,1.09,0,0,0,.32.82,1.1,1.1,0,0,0,.8.35Z"/><path d="M10.52,10h0A1.12,1.12,0,0,1,9.44,8.85a1.09,1.09,0,0,1,.32-.79,1.2,1.2,0,0,1,.88-.3,1,1,0,0,1,1,1.15A1.07,1.07,0,0,1,10.54,10Zm0-1.88A.84.84,0,0,0,10,8.3a.7.7,0,0,0-.21.53.77.77,0,0,0,.75.8c.5,0,.77-.29.79-.74a.68.68,0,0,0-.71-.79Z"/></g></g></svg>