<svg xmlns="http://www.w3.org/2000/svg" viewBox="0 0 22.38 20.25"><g id="Layer_2" data-name="Layer 2"><g id="Layer_1-2" data-name="Layer 1"><path d="M19.23,20.25H2.86V16.79c0-2.77,0-5.63,0-8.45,0-.22,0-.26,0-.26h0a.5.5,0,0,0-.24,0c-.52,0-1,0-1.55,0H.2L0,7.56.81,7,2.53,5.78l.83-.59C4.22,4.58,5.1,4,6,3.35a.5.5,0,0,0,.26-.52c0-.51,0-1,0-1.53,0-.22,0-.43,0-.65V.35H8.62l.05,1.11L8.9,1.3c.48-.32.93-.63,1.35-1a1.12,1.12,0,0,1,1.59,0C14.26,2,16.72,3.75,19.11,5.4l2.42,1.69a1.88,1.88,0,0,1,.54.52l.31.46H19.23a1.21,1.21,0,0,0,0,.27v.27q0,3.89,0,7.77ZM3.45,19.67H18.64V8.35c0-.37,0-.56.15-.72s.36-.15.66-.15h1.62l-2.29-1.6C16.39,4.23,13.92,2.51,11.5.81c-.4-.29-.56-.3-.88,0a16.72,16.72,0,0,1-1.4,1l-.65.45-.44.3L8.06.94H6.83V1.3c0,.52,0,1,0,1.51a1.12,1.12,0,0,1-.52,1c-.88.6-1.77,1.22-2.62,1.83l-.84.59L1.14,7.47l0,0c.48,0,1,0,1.45,0a.85.85,0,0,1,.67.19.87.87,0,0,1,.22.68c0,2.82,0,5.68,0,8.45Z"/><path d="M16.15,10.19l1.31,4.35-1,.05c0,.91,0,1.78,0,2.66,0,.18.06.4,0,.53a1.09,1.09,0,0,1-.57.5c-.33.06-.54-.2-.54-.56,0-.86,0-1.72,0-2.58v-.52h-.15c0,.15,0,.29,0,.43,0,.85,0,1.69,0,2.54,0,.39-.12.71-.57.72S14,18,14,17.59v-3l-1-.06,1.31-4.36-.14,0a4.13,4.13,0,0,0-.17.45,12.72,12.72,0,0,1-1.52,3.65,1.15,1.15,0,0,0-.14.61c0,.91,0,1.82,0,2.73,0,.39-.1.72-.55.72s-.53-.35-.53-.73,0-.75,0-1.13h-.15c0,.18,0,.35,0,.52.05,1.29-.11,1.34-.57,1.34s-.57-.11-.54-1.36c0-.71,0-1.42,0-2.13a1.2,1.2,0,0,0-.13-.57A12.73,12.73,0,0,1,8.19,10.4a1.12,1.12,0,0,0-.11-.25l-.13,0,1.3,4.34-1,.07v3c0,.39-.16.66-.57.66s-.57-.29-.57-.67c0-.83,0-1.65,0-2.48v-.52H6.92v2.91c0,.4-.09.74-.57.77s-.58-.25-.58-.75v-3l-1-.05,1.33-4.37-.13-.05a4.22,4.22,0,0,0-.18.45c-.18.56-.34,1.11-.51,1.66-.1.29-.31.5-.59.34A.69.69,0,0,1,4.42,12c.21-.82.46-1.63.74-2.42a1,1,0,0,1,1.15-.81H7.65a1.1,1.1,0,0,1,1.26.95c.23.72.42,1.46.67,2.18a7.75,7.75,0,0,0,.59,1.19c.06.11.22.16.35.21a1.48,1.48,0,0,0,.3,0c1.22,0,1.42-.15,1.79-1.34.25-.77.47-1.55.71-2.32a1,1,0,0,1,1.2-.88c.46,0,.93,0,1.39,0A1,1,0,0,1,17,9.44c.3.86.57,1.72.81,2.6,0,.15-.17.37-.26.56-.19-.11-.48-.18-.55-.35-.26-.68-.46-1.39-.68-2.1Z"/><path d="M7,6.82a.83.83,0,0,1,.84.85A.85.85,0,0,1,7,8.5a.86.86,0,0,1-.82-.83A.83.83,0,0,1,7,6.82Z"/><path d="M15.19,8.5a.84.84,0,0,1-.82-.87.83.83,0,0,1,.87-.81.84.84,0,0,1,.81.83A.87.87,0,0,1,15.19,8.5Z"/><path d="M11.08,13a.6.6,0,0,1-.58-.62.58.58,0,0,1,.65-.59.55.55,0,0,1,.55.63C11.69,12.8,11.45,13,11.08,13Z"/></g></g></svg>