<svg xmlns="http://www.w3.org/2000/svg" viewBox="0 0 50.09 45.73"><defs><style>.cls-1{fill:#fff;}</style></defs><g id="Layer_2" data-name="Layer 2"><g id="Layer_1-2" data-name="Layer 1"><path class="cls-1" d="M7.26,45.73c-.91-1-.94-1.46.06-2.13C9.68,42,10.25,39.81,9.86,37H5.79A5.48,5.48,0,0,1,0,31.27Q0,18.45,0,5.64A5.45,5.45,0,0,1,5.55,0H44.6a5.44,5.44,0,0,1,5.47,5.46q0,13.05,0,26.11A5.42,5.42,0,0,1,44.46,37q-11.55,0-23.1,0a1.55,1.55,0,0,0-1.64,1A13.12,13.12,0,0,1,9.51,45.56c-.11,0-.21.11-.31.17ZM10.88,43c.15,0,.23.1.29.09a5.58,5.58,0,0,0,.58-.18,11,11,0,0,0,6.57-6.67,1.91,1.91,0,0,1,2.08-1.37c8,0,16,0,24,0a3.21,3.21,0,0,0,3.54-3.27q0-13,0-26.12a3.16,3.16,0,0,0-3.3-3.26H5.52A3.17,3.17,0,0,0,2.19,5.53q0,12.94,0,25.89a3.22,3.22,0,0,0,3.39,3.42c1.57,0,3.15,0,4.72,0A1.47,1.47,0,0,1,12,36.33C12.27,38.64,12.3,40.92,10.88,43Z"/><path class="cls-1" d="M15.66,23.81A3.83,3.83,0,1,1,19.49,20,3.84,3.84,0,0,1,15.66,23.81Zm0-6.21A2.38,2.38,0,1,0,18,20,2.39,2.39,0,0,0,15.66,17.6Z"/><path class="cls-1" d="M25.05,23.81A3.83,3.83,0,1,1,28.88,20,3.84,3.84,0,0,1,25.05,23.81Zm0-6.21A2.38,2.38,0,1,0,27.43,20,2.38,2.38,0,0,0,25.05,17.6Z"/><path class="cls-1" d="M34.43,23.81A3.83,3.83,0,1,1,38.26,20,3.84,3.84,0,0,1,34.43,23.81Zm0-6.21A2.38,2.38,0,1,0,36.81,20,2.39,2.39,0,0,0,34.43,17.6Z"/></g></g></svg>