<svg xmlns="http://www.w3.org/2000/svg" viewBox="0 0 44.19 44.19"><defs><style>.cls-1{fill:gray;}.cls-2{fill:#fff;}</style></defs><g id="Layer_2" data-name="Layer 2"><g id="Layer_1-2" data-name="Layer 1"><circle class="cls-1" cx="22.09" cy="22.09" r="22.09"/><path class="cls-2" d="M20.61,15.56a5,5,0,0,1-.84,1.35c-1.2,1.08-1.11,2.11-.34,3.43a29.83,29.83,0,0,0,4.16,5.76.9.9,0,0,0,1.11.3c.55-.22,1.15-.32,1.72-.51a1.83,1.83,0,0,1,1.94.44q2.07,1.86,4.09,3.75a1.87,1.87,0,0,1,.22,2.69,11.8,11.8,0,0,1-3.58,3,2.12,2.12,0,0,1-2.2,0A29.59,29.59,0,0,1,12,17.06a47.9,47.9,0,0,1-.89-4.78,1.93,1.93,0,0,1,.77-1.92,11.47,11.47,0,0,1,4.22-2.21,1.84,1.84,0,0,1,2.38,1.13c.69,1.77,1.34,3.55,2,5.33A7.43,7.43,0,0,1,20.61,15.56ZM12,12c.34,1.71.57,3.35,1,4.93A28.37,28.37,0,0,0,27.25,34.77a1.6,1.6,0,0,0,1.24.12,9.45,9.45,0,0,0,3.31-2.75.86.86,0,0,0-.11-1.32c-1.33-1.22-2.64-2.45-4-3.63A1.47,1.47,0,0,0,26.62,27c-.78.15-1.53.46-2.31.62a1.17,1.17,0,0,1-.92-.2,24,24,0,0,1-5.78-8.57,1.29,1.29,0,0,1,.15-1c.42-.65,1-1.2,1.4-1.85a1.47,1.47,0,0,0,.22-1.08c-.59-1.73-1.24-3.43-1.89-5.13a.81.81,0,0,0-1.2-.53c-1.25.61-2.48,1.25-3.69,1.94C12.33,11.31,12.2,11.72,12,12Z"/></g></g></svg>