<svg xmlns="http://www.w3.org/2000/svg" viewBox="0 0 44.37 44.37"><defs><style>.cls-1{fill:gray;}.cls-2{fill:#fff;}</style></defs><g id="Layer_2" data-name="Layer 2"><g id="Layer_1-2" data-name="Layer 1"><circle class="cls-1" cx="22.19" cy="22.19" r="22.19"/><path class="cls-2" d="M27.38,21.11H32c1.85,0,2.65.81,2.65,2.65q0,3.12,0,6.24a2.18,2.18,0,0,1-2.35,2.43c-2.39,0-4.78,0-7.17,0a2.07,2.07,0,0,1-2.21-1.94c0-3.83-.37-7.69.58-11.47.62-2.49,1.69-4.73,4-6.13a6.89,6.89,0,0,1,4.17-1c.59,0,.81.31.8.86,0,1,0,2,0,3,0,.49-.14.8-.74.76-2.44-.17-3.73.87-4.13,3.27C27.47,20.2,27.44,20.59,27.38,21.11ZM31.29,13a5.29,5.29,0,0,0-3.61,1A8,8,0,0,0,24.39,20c-.34,3.42-.32,6.87-.42,10.3,0,.85.61,1.07,1.35,1.07,2.24,0,4.49,0,6.74,0,1.09,0,1.49-.42,1.49-1.51q0-3,0-6.06c0-1.26-.35-1.6-1.64-1.61-1.57,0-3.13,0-4.69,0-.31,0-.87-.33-.87-.52-.05-2.1.21-4.17,2.09-5.47a12.53,12.53,0,0,1,2.85-1.07Z"/><path class="cls-2" d="M14.44,21.11H18a16.19,16.19,0,0,1,1.71.07,2.1,2.1,0,0,1,1.88,2.08q0,3.51,0,7a2.09,2.09,0,0,1-2.09,2.15c-2.54,0-5.07,0-7.61,0a2.08,2.08,0,0,1-2.07-2.09c0-3.58-.29-7.18.48-10.73.56-2.56,1.52-4.9,3.76-6.48a6.75,6.75,0,0,1,4.53-1.19c.57,0,.81.28.8.85,0,1,0,2,0,3,0,.46-.15.78-.69.77C15.72,16.51,14.25,18.05,14.44,21.11Zm3.82-8a5.36,5.36,0,0,0-3.46.88,8.31,8.31,0,0,0-3.27,5.13c-1,3.66-.61,7.41-.65,11.13a1.09,1.09,0,0,0,1.22,1.16c2.36,0,4.72,0,7.09,0,1,0,1.33-.42,1.33-1.39,0-2.1,0-4.21,0-6.32,0-1.05-.38-1.42-1.46-1.43-1.28,0-2.57,0-3.85,0-2.09,0-2.12,0-1.84-2.08.25-1.91.89-3.62,2.86-4.41a13.3,13.3,0,0,1,2-.45Z"/></g></g></svg>