<svg xmlns="http://www.w3.org/2000/svg" viewBox="0 0 43.56 43.56"><defs><style>.cls-1{fill:gray;}.cls-2{fill:#f2f2f2;}</style></defs><g id="Layer_2" data-name="Layer 2"><g id="Layer_1-2" data-name="Layer 1"><circle class="cls-1" cx="21.78" cy="21.78" r="21.78"/><path class="cls-2" d="M12.79,19.67c0,.29,0,.49,0,.69v7.21a1.76,1.76,0,0,0,.31,1.22,6.43,6.43,0,0,1,.66,1.31.7.7,0,0,1-.63,1.08,7.72,7.72,0,0,1-1.36,0,.7.7,0,0,1-.65-1.07c.24-.54.54-1,.8-1.56A1.24,1.24,0,0,0,12,28c0-2.78,0-5.56,0-8.34a.55.55,0,0,0-.38-.6c-.35-.15-.69-.32-1-.5-.15-.09-.38-.28-.36-.37a.76.76,0,0,1,.39-.42c3.07-1.55,6.13-3.1,9.22-4.62,2.25-1.11,1.44-1.11,3.71,0,3.07,1.51,6.12,3.05,9.17,4.59a2.74,2.74,0,0,1,.48.43,3.14,3.14,0,0,1-.48.42c-1.14.59-2.29,1.17-3.45,1.72a.63.63,0,0,0-.4.66c0,1.19,0,2.38,0,3.57a2.82,2.82,0,0,1-1.36,2.58,8.8,8.8,0,0,1-4,1.39,12.38,12.38,0,0,1-6.09-.61,7.85,7.85,0,0,1-1.55-.8,2.78,2.78,0,0,1-1.36-2.57c0-1.17,0-2.35,0-3.52a.66.66,0,0,0-.46-.73C13.69,20.13,13.28,19.91,12.79,19.67ZM32.05,18.2l-.87-.45c-2.95-1.48-5.91-2.95-8.85-4.44a1.13,1.13,0,0,0-1.15,0C18.47,14.69,15.75,16,13,17.39l-1.57.81c3.37,1.69,6.64,3.33,9.92,4.95a1,1,0,0,0,.74,0C25.4,21.53,28.67,19.89,32.05,18.2ZM28.2,20.92c-1.95,1-3.82,1.88-5.66,2.84a1.58,1.58,0,0,1-1.6,0c-1.67-.88-3.37-1.71-5.06-2.55-.17-.09-.35-.15-.61-.26,0,1.21.06,2.33,0,3.44a2.37,2.37,0,0,0,1.38,2.39,11.43,11.43,0,0,0,1.28.59,11.82,11.82,0,0,0,5.31.52,7.35,7.35,0,0,0,4-1.36,2.3,2.3,0,0,0,.95-1.32C28.28,23.82,28.2,22.42,28.2,20.92ZM13.13,30.46,12.4,29l-.7,1.42Z"/></g></g></svg>