<svg xmlns="http://www.w3.org/2000/svg" viewBox="0 0 44.26 44.26"><defs><style>.cls-1{fill:gray;}.cls-2{fill:#fff;}</style></defs><g id="Layer_2" data-name="Layer 2"><g id="Layer_1-2" data-name="Layer 1"><circle class="cls-1" cx="22.13" cy="22.13" r="22.13"/><path class="cls-2" d="M30.24,18.33l2.12,7-1.63.09c0,1.45,0,2.86,0,4.27,0,.29.1.65,0,.86a1.7,1.7,0,0,1-.91.8c-.54.1-.87-.32-.87-.89,0-1.39,0-2.77,0-4.16v-.83l-.23,0a5.38,5.38,0,0,0-.07.69c0,1.36,0,2.72,0,4.08,0,.64-.18,1.15-.9,1.16s-.92-.5-.92-1.14c0-1.59,0-3.18,0-4.82l-1.66-.09,2.11-7L27,18.23c-.09.24-.21.47-.28.72a19.92,19.92,0,0,1-2.45,5.87,2,2,0,0,0-.22,1c0,1.47,0,2.94,0,4.4,0,.63-.16,1.17-.89,1.17s-.85-.58-.84-1.19,0-1.21,0-1.81l-.24,0c0,.28,0,.56,0,.84.09,2.07-.18,2.16-.91,2.16s-.93-.19-.88-2.19c0-1.15,0-2.3,0-3.44a1.72,1.72,0,0,0-.21-.91,20.55,20.55,0,0,1-2.58-6.15,3.65,3.65,0,0,0-.18-.41l-.21.07,2.09,7-1.64.1v4.9c0,.62-.26,1.06-.92,1.06s-.92-.46-.92-1.07c0-1.33,0-2.66,0-4v-.84h-.27v2.19c0,.83,0,1.66,0,2.48,0,.65-.15,1.19-.92,1.24-.6.05-.93-.39-.93-1.21,0-1.56,0-3.13,0-4.75l-1.66-.09,2.13-7-.21-.08c-.09.24-.21.48-.29.73-.28.89-.54,1.78-.82,2.67-.15.47-.49.81-.94.54a1.09,1.09,0,0,1-.39-1c.34-1.31.75-2.61,1.19-3.89A1.66,1.66,0,0,1,14.41,16h2.16a1.77,1.77,0,0,1,2,1.52c.37,1.17.67,2.36,1.08,3.51A11.52,11.52,0,0,0,20.62,23c.09.17.36.26.57.33a1.47,1.47,0,0,0,.47,0c2,0,2.29-.22,2.9-2.14.39-1.25.75-2.5,1.14-3.74A1.67,1.67,0,0,1,27.62,16c.75,0,1.5,0,2.24,0a1.59,1.59,0,0,1,1.74,1.12c.48,1.38.92,2.78,1.3,4.19.07.24-.26.59-.41.9-.3-.18-.78-.3-.88-.56-.43-1.1-.75-2.25-1.11-3.38Z"/><path class="cls-2" d="M15.52,12.88a1.34,1.34,0,0,1,1.35,1.38,1.36,1.36,0,0,1-2.71,0A1.36,1.36,0,0,1,15.52,12.88Z"/><path class="cls-2" d="M28.71,15.59a1.36,1.36,0,0,1-1.33-1.39,1.34,1.34,0,0,1,1.41-1.31,1.36,1.36,0,0,1,1.3,1.35A1.38,1.38,0,0,1,28.71,15.59Z"/><path class="cls-2" d="M22.09,22.88a1,1,0,0,1-.94-1,.93.93,0,0,1,1-.95.88.88,0,0,1,.9,1A1,1,0,0,1,22.09,22.88Z"/></g></g></svg>