<svg xmlns="http://www.w3.org/2000/svg" viewBox="0 0 13.74 17.46"><g id="Layer_2" data-name="Layer 2"><g id="Layer_1-2" data-name="Layer 1"><path d="M6,4.67a3.2,3.2,0,0,1-.52.84,1.46,1.46,0,0,0-.21,2.13A18.2,18.2,0,0,0,7.8,11.22a.55.55,0,0,0,.69.19c.35-.14.72-.2,1.07-.32a1.16,1.16,0,0,1,1.21.27c.86.78,1.71,1.55,2.55,2.34a1.16,1.16,0,0,1,.13,1.67,7.36,7.36,0,0,1-2.22,1.9,1.32,1.32,0,0,1-1.37,0A18.45,18.45,0,0,1,.57,5.6c-.26-1-.38-2-.55-3A1.21,1.21,0,0,1,.5,1.43,7.23,7.23,0,0,1,3.12.06,1.14,1.14,0,0,1,4.6.76C5,1.86,5.44,3,5.84,4.08A3.12,3.12,0,0,1,6,4.67ZM.6,2.46c.21,1.07.36,2.09.63,3.07a17.67,17.67,0,0,0,8.85,11.09,1,1,0,0,0,.77.07A5.77,5.77,0,0,0,12.91,15a.53.53,0,0,0-.07-.82c-.82-.76-1.64-1.53-2.49-2.26a.88.88,0,0,0-.66-.14c-.49.09-1,.29-1.44.39A.74.74,0,0,1,7.68,12a14.89,14.89,0,0,1-3.6-5.33.78.78,0,0,1,.1-.63c.26-.4.61-.75.87-1.15a.87.87,0,0,0,.13-.68C4.82,3.16,4.41,2.1,4,1.05A.51.51,0,0,0,3.26.71C2.49,1.1,1.72,1.5,1,1.93.8,2,.72,2.28.6,2.46Z"/></g></g></svg>