<svg xmlns="http://www.w3.org/2000/svg" viewBox="0 0 43.17 43.17"><defs><style>.cls-1{fill:gray;}.cls-2{fill:#f2f2f2;}</style></defs><g id="Layer_2" data-name="Layer 2"><g id="Layer_1-2" data-name="Layer 1"><circle class="cls-1" cx="21.59" cy="21.59" r="21.59"/><path class="cls-2" d="M25.48,28.52l-1.87-1.95-2,2-.2-.16c-2.25-2.25-4.51-4.49-6.75-6.76a4.11,4.11,0,0,1,5.66-5.95c.41.39.78.82,1.18,1.24.51-.48.94-.94,1.41-1.35a4.11,4.11,0,0,1,5.95,5.6l-.3.38.32.24a2.08,2.08,0,0,1,.37,3C28.07,26.07,26.78,27.26,25.48,28.52Zm-3.93-11c-.53-.55-1-1.08-1.5-1.56A3.75,3.75,0,0,0,15,21.42c.94,1,1.92,1.93,2.88,2.89L21.51,28l1.76-1.76c-.4-.38-.83-.78-1.24-1.21a2.15,2.15,0,1,1,3.06-3,5.56,5.56,0,0,1,.4.47l.16-.1a2.41,2.41,0,0,1,2.42-1c.08,0,.2-.07.27-.14a3.58,3.58,0,0,0,1-3.15,3.55,3.55,0,0,0-2.57-3,3.62,3.62,0,0,0-3.83,1C22.47,16.53,22.05,17,21.55,17.49Zm4,10.5c1.07-1.06,2.16-2.12,3.23-3.2a1.78,1.78,0,1,0-2.54-2.49,7.64,7.64,0,0,0-.61.77l-.2-.05c-.25-.28-.47-.58-.74-.84a1.77,1.77,0,0,0-2.52,2.49C23.3,25.8,24.44,26.88,25.58,28Z"/></g></g></svg>