<svg xmlns="http://www.w3.org/2000/svg" viewBox="0 0 44.26 44.26"><defs><style>.cls-1{fill:gray;}.cls-2{fill:#fff;}</style></defs><g id="Layer_2" data-name="Layer 2"><g id="Layer_1-2" data-name="Layer 1"><circle class="cls-1" cx="22.13" cy="22.13" r="22.13"/><path class="cls-2" d="M30.3,32H13.67V28.48c0-2.81,0-5.72,0-8.58a.65.65,0,0,0,0-.27h0a.53.53,0,0,0-.25,0c-.52,0-1.06,0-1.57,0H11l-.21-.52.82-.57,1.75-1.24.85-.6c.87-.61,1.77-1.25,2.66-1.86a.53.53,0,0,0,.28-.54c0-.51,0-1,0-1.55v-1h2.41l.05,1.12.23-.15a16.65,16.65,0,0,0,1.37-1,1.15,1.15,0,0,1,1.62,0c2.46,1.74,5,3.48,7.39,5.16l2.46,1.71a2,2,0,0,1,.55.54l.31.46H30.3a1.21,1.21,0,0,0,0,.27v.28c0,2.63,0,5.26,0,7.89Zm-16-.59H29.7V19.9c0-.37,0-.57.15-.73s.37-.15.68-.14h1.65L29.84,17.4c-2.43-1.68-4.93-3.43-7.39-5.16-.41-.29-.57-.29-.9,0a15.7,15.7,0,0,1-1.42,1l-.66.46L19,14,19,12.38H17.7v.37c0,.52,0,1,0,1.52a1.11,1.11,0,0,1-.53,1.05c-.89.61-1.79,1.24-2.66,1.86l-.85.6L11.92,19l0,0c.48,0,1,0,1.47,0a.89.89,0,0,1,.69.18,1,1,0,0,1,.22.7c0,2.86,0,5.77,0,8.58Z"/><path class="cls-2" d="M27.25,21.78l1.34,4.41-1,.06V29c0,.18.06.41,0,.54A1.13,1.13,0,0,1,27,30c-.34.06-.55-.21-.55-.57,0-.87,0-1.75,0-2.62v-.53h-.15c0,.14,0,.29-.05.44v2.57c0,.4-.11.73-.57.73s-.58-.31-.58-.72c0-1,0-2,0-3l-1-.06,1.33-4.42-.14-.05a3.61,3.61,0,0,0-.17.46,12.92,12.92,0,0,1-1.55,3.7,1.41,1.41,0,0,0-.14.62c0,.92,0,1.85,0,2.77,0,.4-.1.74-.56.74s-.54-.36-.53-.75V28.12h-.15c0,.17,0,.35,0,.53.06,1.3-.11,1.36-.57,1.36s-.59-.12-.56-1.38c0-.73,0-1.45,0-2.17a1.1,1.1,0,0,0-.13-.58A12.75,12.75,0,0,1,19.17,22a1.89,1.89,0,0,0-.11-.25l-.14,0,1.33,4.41-1,.06v3.09c0,.4-.17.67-.58.67s-.58-.29-.58-.67c0-.84,0-1.68,0-2.53v-.53h-.16v1.39c0,.52,0,1,0,1.56s-.1.75-.58.78-.59-.25-.59-.76c0-1,0-2,0-3l-1.05-.06L17,21.76l-.13-.05a3.71,3.71,0,0,0-.19.46c-.17.56-.34,1.12-.52,1.68-.09.3-.31.51-.59.35a.67.67,0,0,1-.24-.61c.21-.83.47-1.65.75-2.46a1,1,0,0,1,1.17-.81c.45,0,.91,0,1.36,0a1.11,1.11,0,0,1,1.28.95c.23.74.42,1.49.68,2.22a7.17,7.17,0,0,0,.6,1.21.59.59,0,0,0,.36.21.75.75,0,0,0,.3,0c1.24,0,1.44-.14,1.82-1.35.25-.79.47-1.58.72-2.36a1.07,1.07,0,0,1,1.22-.9c.47,0,.94,0,1.41,0a1,1,0,0,1,1.1.7c.3.87.58,1.75.82,2.65,0,.15-.17.37-.26.56-.19-.11-.5-.18-.56-.35-.27-.69-.47-1.42-.7-2.13Z"/><path class="cls-2" d="M18,18.35a.85.85,0,0,1,.85.86.87.87,0,0,1-.88.85.88.88,0,0,1-.83-.85A.85.85,0,0,1,18,18.35Z"/><path class="cls-2" d="M26.28,20.06a.87.87,0,0,1-.84-.88.86.86,0,0,1,1.71,0A.88.88,0,0,1,26.28,20.06Z"/><path class="cls-2" d="M22.11,24.65a.61.61,0,0,1-.6-.63.58.58,0,0,1,.66-.59.56.56,0,0,1,.57.63A.59.59,0,0,1,22.11,24.65Z"/></g></g></svg>