<svg xmlns="http://www.w3.org/2000/svg" viewBox="0 0 14.95 20.29"><g id="Layer_2" data-name="Layer 2"><g id="Layer_1-2" data-name="Layer 1"><path d="M15,12.67c0-.4-.14-.77-.51-.86-.87-.21-1-.79-.89-1.53a5.3,5.3,0,0,0,0-.69c0-.95-.37-1.17-1.23-.77-.13.06-.38.1-.44,0A2.16,2.16,0,0,0,10,8.22a.72.72,0,0,1-.86-.47L10.4,6a1,1,0,0,1,.26-.23,1.52,1.52,0,0,0,.49-2A2.58,2.58,0,0,1,10.84,3,3.28,3.28,0,0,0,8.58.18,3.32,3.32,0,0,0,4.18,3a1.77,1.77,0,0,1-.19.7,1.44,1.44,0,0,0,.42,2.16A.86.86,0,0,1,4.6,6L5.89,7.74c-.29.5-.29.52-.95.49A2.05,2.05,0,0,0,3,9l-.49-.24c-.65-.31-1.08,0-1.09.7a7.45,7.45,0,0,0,0,1.25.79.79,0,0,1-.65,1A1,1,0,0,0,0,12.86,9,9,0,0,1,0,14a1.32,1.32,0,0,0,1,1.59.51.51,0,0,1,.39.63c0,.13,0,.28,0,.42a.86.86,0,0,0,.56.95c1.67.83,3.32,1.68,5,2.54a.92.92,0,0,0,1,0c1.65-.86,3.3-1.72,5-2.54a1,1,0,0,0,.67-1.11.85.85,0,0,1,.69-1.09A1,1,0,0,0,15,14.34C14.94,13.78,15,13.22,15,12.67ZM7.43.64a2.51,2.51,0,0,1,2.5,1.47,2.91,2.91,0,0,0-.69.18,3.38,3.38,0,0,1-3.46,0,2.49,2.49,0,0,0-.68-.14A2.41,2.41,0,0,1,7.43.64ZM5.34,6c-.2-.35-.28-.77-.77-.91-.26-.08-.28-.72-.09-1l1.06-1.3a4,4,0,0,0,4,0c.37.46.74.88,1.08,1.34a.72.72,0,0,1-.31,1,1,1,0,0,0-.39.41A3.24,3.24,0,0,1,8.61,7.13,2.43,2.43,0,0,1,5.34,6ZM8.92,8.69c0,.61-1.16,1.4-1.7,1.14a2.81,2.81,0,0,1-.82-.59.69.69,0,0,1,.09-1.18c.08-.07.25,0,.38,0,.41,0,.83,0,1.24,0A.86.86,0,0,1,8.92,8.69ZM.75,14.63a5,5,0,0,1-.1-1.1h0v0c0-.37,0-.93.17-1.07a4.62,4.62,0,0,1,1.58-.59c.11,0,.3.21.45.32-.12.13-.22.32-.37.39s-.55.09-.8.2-.18.24-.27.36c.14.08.27.21.4.22s.37-.1.55-.09a.67.67,0,0,1,.43.16c.06,0,0,.27,0,.33a.82.82,0,0,1-.43.17c-.18,0-.37-.1-.55-.08s-.26.16-.39.24c.09.12.15.31.27.36s.55.1.8.2a.56.56,0,0,1,.35.34c0,.09-.17.28-.3.34A2.46,2.46,0,0,1,.75,14.63Zm6.43,4.68a.87.87,0,0,1,0,.13L4.61,18.16l-1.9-1C2,16.83,2,16.83,2.11,16a4.21,4.21,0,0,0,.5,0,1,1,0,0,0,.82-1.44.08.08,0,0,1,0,0c.08-.58-.07-1.2,0-1.72.18-1-.09-1.55-1.1-1.57l-.17,0V9.24c.12,0,.23.08.33.13,1.46.76,2.91,1.52,4.35,2.3a.62.62,0,0,1,.32.43C7.19,14.5,7.18,16.9,7.18,19.31Zm.15-8.09L3.73,9.39s-.06-.06-.09-.09a1.85,1.85,0,0,1,1.74-.43c.09,0,.16.17.22.27a2.18,2.18,0,0,0,1.88,1.4,2.3,2.3,0,0,0,1.9-1.4.6.6,0,0,1,.44-.28c.54,0,1.12-.1,1.54.47L7.63,11.24A.4.4,0,0,1,7.33,11.22Zm4.78,6.08c-1.31.64-2.59,1.33-3.89,2a3.61,3.61,0,0,1-.39.19c0-2.5,0-4.91,0-7.33A.5.5,0,0,1,8,11.78c1.6-.84,3.21-1.66,4.87-2.52v2a3.39,3.39,0,0,0-.45,0,1,1,0,0,0-.84,1.4c0,.07.12.15.1.2-.22.54,0,1.11-.05,1.61-.17,1.05.09,1.53,1.16,1.55l.09,0a.19.19,0,0,1,0,.08C13.07,16.78,12.65,17,12.11,17.3Zm2.23-3.6c-.05.36,0,.9-.17,1a5,5,0,0,1-1.59.58c-.12,0-.31-.21-.46-.33.13-.13.24-.3.39-.36s.53-.08.77-.18.18-.24.27-.37c-.13-.08-.26-.21-.39-.22s-.41.12-.59.09-.31-.21-.46-.33c.15-.11.29-.3.45-.33s.43.1.64.09a.41.41,0,0,0,.33-.23.44.44,0,0,0-.21-.34c-.27-.11-.58-.13-.84-.25s-.32-.25-.31-.36.25-.38.33-.35a17.5,17.5,0,0,1,1.72.6c.08,0,.11.22.11.33,0,.28,0,.56,0,.84Z"/><path d="M8.48,6c-.11-.08-.34-.15-.42-.09a.79.79,0,0,1-1.1,0c-.08-.07-.32,0-.42.08a.41.41,0,0,0,.06.38c.28.17.59.29.92.45a8.18,8.18,0,0,0,.89-.45A.42.42,0,0,0,8.48,6Z"/><path d="M6.68,4.52a6.28,6.28,0,0,0-1,0s-.08.34,0,.39a1.45,1.45,0,0,0,.52.19,1.69,1.69,0,0,0,.49-.21C6.77,4.84,6.7,4.52,6.68,4.52Z"/><path d="M8.81,5.06c.25,0,.56.06.58-.3s-.33-.31-.65-.43c-.17.13-.47.24-.49.39C8.21,5.1,8.55,5.06,8.81,5.06Z"/></g></g></svg>