<svg xmlns="http://www.w3.org/2000/svg" viewBox="0 0 21.48 21.45"><g id="Layer_2" data-name="Layer 2"><g id="Layer_1-2" data-name="Layer 1"><path d="M21,11a12.46,12.46,0,0,1-.64-4.62,15.31,15.31,0,0,1,0-1.66A1.67,1.67,0,0,0,19.25,3a9.31,9.31,0,0,0-3.6-.77c-1.26-.05-2.51,0-3.83,0C11.64,1.38,11.26,1,10.16.61A14.38,14.38,0,0,0,4.4.07,8.73,8.73,0,0,0,.93.92,1.58,1.58,0,0,0,0,2.47Q0,10.2,0,17.92a1.55,1.55,0,0,0,.9,1.51,5.63,5.63,0,0,0,1,.4A14.45,14.45,0,0,0,8,20.22a2.35,2.35,0,0,1,1.61.26,8,8,0,0,0,8.88-.85A7.7,7.7,0,0,0,21,11ZM11.81,3.66a.47.47,0,0,1,.33-.28,14.52,14.52,0,0,1,6.22.36,7.56,7.56,0,0,1,1,.48c-1,1-4.8,1.46-7.58.89C11.8,4.64,11.78,4.15,11.81,3.66Zm7.46,2V7.81L17.2,6.25ZM10.77,2.2a9.88,9.88,0,0,1-1.11.52,13,13,0,0,1-5.08.44A21.63,21.63,0,0,1,2,2.65a4,4,0,0,1-.91-.44C2.19.75,9.2.65,10.77,2.2Zm-.06,3.07c0,.17-.31.4-.52.45a17.76,17.76,0,0,1-2.76.63,12.59,12.59,0,0,1-5.52-.49c-.86-.31-.85-.32-.85-1.23V3.46a14.36,14.36,0,0,0,9.68,0A15.51,15.51,0,0,1,10.71,5.27ZM1.05,8.09c0-.45,0-.91,0-1.45a14.06,14.06,0,0,0,6.87.75c-.52.71-1,1.4-1.53,2.08a.44.44,0,0,1-.32.17A11.39,11.39,0,0,1,1.6,9,.76.76,0,0,1,1.05,8.09Zm0,5.14,4.28.84.41,2a9.4,9.4,0,0,1-4.3-.76.87.87,0,0,1-.37-.6A12.34,12.34,0,0,1,1.06,13.23Zm0-3.2,4.68.84-.43,2a8.57,8.57,0,0,1-4-.79.7.7,0,0,1-.28-.49C1,11,1.06,10.5,1.06,10Zm.62,8.62a.79.79,0,0,1-.63-.93,13,13,0,0,0,0-1.41,12.42,12.42,0,0,0,5,.85.41.41,0,0,1,.3.12c.45.62.89,1.25,1.37,1.93A13.54,13.54,0,0,1,1.68,18.65ZM13.4,20.39a7,7,0,1,1,7-7A7,7,0,0,1,13.4,20.39Z"/><path d="M14.21,12.92a.52.52,0,0,1-.28-.34c0-.7,0-1.4,0-2.17A1.33,1.33,0,0,1,15,11.3c.14.36.38.55.75.4s.38-.52.22-.87a2.44,2.44,0,0,0-1.58-1.38c-.27-.08-.48-.12-.51-.47a.57.57,0,0,0-.38-.36c-.15,0-.47.09-.48.17-.08.61-.64.59-1,.84a3.29,3.29,0,0,0-.93.89,2.24,2.24,0,0,0,1.36,3.33c.16.05.39.22.4.35,0,.72,0,1.43,0,2.19a1.25,1.25,0,0,1-1-.85c-.15-.37-.39-.59-.79-.41s-.34.55-.18.88a2.37,2.37,0,0,0,1.5,1.32c.29.09.54.16.6.55a.56.56,0,0,0,.45.31c.18,0,.35-.21.49-.37a.79.79,0,0,0,.09-.35,2.56,2.56,0,0,0,2.16-2.17A2.49,2.49,0,0,0,14.21,12.92Zm-1.37-.25a1.11,1.11,0,0,1-1.05-1,1.18,1.18,0,0,1,1.05-1.22ZM14,16.35v-2.3a1.25,1.25,0,0,1,1,1.15C15,15.71,14.68,16.11,14,16.35Z"/></g></g></svg>