<svg xmlns="http://www.w3.org/2000/svg" viewBox="0 0 37.71 37.7"><defs><style>.cls-1{fill:#fff;}</style></defs><g id="Layer_2" data-name="Layer 2"><g id="Layer_1-2" data-name="Layer 1"><path class="cls-1" d="M17.9,6.26A5.58,5.58,0,0,1,15,10.12a5.32,5.32,0,0,1-7.52-3,1.11,1.11,0,0,0-1.3-.88c-1.62,0-3.25,0-4.88,0C.7,6.26,0,6.21,0,5.39s.64-.9,1.3-.9c1.66,0,3.32,0,5,0A1,1,0,0,0,7.5,3.67a5.32,5.32,0,0,1,10.13,0,1,1,0,0,0,1.15.8c5.62,0,11.24,0,16.86,0h.76c.65,0,1.32.08,1.3.9s-.68.87-1.32.87H17.9ZM12.55,9a3.66,3.66,0,0,0,3.63-3.57,3.63,3.63,0,0,0-3.56-3.63A3.6,3.6,0,1,0,12.55,9Z"/><path class="cls-1" d="M27.52,33.21c-2.91,0-5.82,0-8.73,0a1,1,0,0,0-1.16.78,5.35,5.35,0,0,1-5,3.72,5.42,5.42,0,0,1-5.12-3.76c-.18-.55-.42-.76-1-.74-1.72,0-3.45,0-5.18,0-.66,0-1.3-.1-1.28-.91s.64-.86,1.26-.85c1.76,0,3.51,0,5.27,0a.8.8,0,0,0,.9-.62A5.28,5.28,0,0,1,12.57,27a5.25,5.25,0,0,1,5.13,3.87c.23.66.63.59,1.09.59H36c.7,0,1.69-.22,1.73.83s-1,.92-1.73.92C33.14,33.22,30.33,33.21,27.52,33.21ZM12.59,35.93a3.6,3.6,0,0,0,0-7.2,3.6,3.6,0,1,0,0,7.2Z"/><path class="cls-1" d="M30.53,18H36.4c.65,0,1.3.07,1.31.89s-.64.9-1.3.89c-1.73,0-3.45,0-5.18,0a.82.82,0,0,0-1,.65A5.34,5.34,0,0,1,20,20.4c-.2-.62-.53-.67-1.05-.67H1.64c-.28,0-.64.09-.84,0s-.72-.57-.76-.9.43-.61.75-.8.56,0,.84,0C7.42,18,13.2,18,19,18a.94.94,0,0,0,1.08-.76,5.26,5.26,0,0,1,5-3.71,5.33,5.33,0,0,1,5.16,3.71C30.34,17.45,30.43,17.69,30.53,18ZM25.1,22.43a3.58,3.58,0,1,0,.14-7.15,3.58,3.58,0,1,0-.14,7.15Z"/></g></g></svg>