<svg xmlns="http://www.w3.org/2000/svg" viewBox="0 0 69.11 69.11"><g id="Layer_2" data-name="Layer 2"><g id="Layer_1-2" data-name="Layer 1"><path d="M0,31.9A47.28,47.28,0,0,1,1,26,34,34,0,0,1,17.5,4.52,33.16,33.16,0,0,1,36.59.08,34,34,0,0,1,57.27,8.56a33.75,33.75,0,0,1,11,18.58,33.86,33.86,0,0,1-3.48,24.12,33.69,33.69,0,0,1-8.54,10.23,3.37,3.37,0,0,1-.37.29,1.41,1.41,0,0,1-1.94-.25,1.34,1.34,0,0,1,.15-1.89c.72-.7,1.51-1.33,2.25-2a31.09,31.09,0,0,0,7.8-11.74,32.53,32.53,0,0,0,2-13.36c0-.42-.09-.85-.15-1.45a6.68,6.68,0,0,1-1.65,2.22c-1.08,1-2.15.8-2.67-.57s-1-2.92-1.61-4.37a8.49,8.49,0,0,0-2-2.57.56.56,0,0,0-.63-.14c-.27.13-.06.36,0,.53a1.5,1.5,0,0,1-.51,1.33,18.36,18.36,0,0,1-7.23,4.32,1.37,1.37,0,0,1-1.77-.7c-1.18-2.19-2.32-4.41-3.46-6.63a1.31,1.31,0,0,1-.18-.57c-.08-1.71-1.33-2.41-2.63-3-.4-.2-.86-.29-1.26-.48a1.39,1.39,0,0,1-.79-1.72,1.47,1.47,0,0,1,1.74-.92c2.35.45,3.95,2,5.45,3.7a1.57,1.57,0,0,1,.33,1.21,2.62,2.62,0,0,0,.38,1.54c.7,1.3,1.39,2.61,2,3.95.24.49.48.53.94.32a15.65,15.65,0,0,0,3.28-2c.26-.21.4-.37.19-.71a2,2,0,0,1,1.73-3,11,11,0,0,1,2.81.1,2.26,2.26,0,0,1,1.17.51,10.85,10.85,0,0,1,3.19,4.18c.18.5.37,1,.59,1.62a4.1,4.1,0,0,1,1.37-2.44.81.81,0,0,0,.2-1,30.89,30.89,0,0,0-5.74-11A31.66,31.66,0,0,0,39.34,3.24h-.07c-2-.17-1.46-.55-2.84,1.16-.82,1-1.64,2-2.43,3.06a2.89,2.89,0,0,1-1.45,1c-2.53.87-5,1.77-7.57,2.64a1.29,1.29,0,0,0-.89.82c-.49,1.23-1,2.45-1.52,3.67a.71.71,0,0,0,.06.81q.72,1,1.41,2c.19.27.31.31.54,0a6.26,6.26,0,0,1,5.6-2.48,1.45,1.45,0,0,1,1.52,1.39,1.41,1.41,0,0,1-1.49,1.4,5.49,5.49,0,0,0-2.05.34,3.33,3.33,0,0,0-1.34,1.1c-.14.19-.38.4-.24.65s.41.12.62.11a14.79,14.79,0,0,1,3.76,0,2.43,2.43,0,0,1,2.19,2.4c.07.64.76.68,1.17,1s.42-.09.6-.24a2.72,2.72,0,0,1,2.68-.67c.85.26,1.71.53,2.58.76a5.37,5.37,0,0,1,3.61,3.36c.53,1.24,1,2.49,1.58,3.72.22.51.49,1,.76,1.5a2.59,2.59,0,0,0,2.09,1.4,6.41,6.41,0,0,1,1.44.33A2.1,2.1,0,0,1,51,37.39a7.66,7.66,0,0,1-2,2.63,29,29,0,0,0-2.26,2.31,2.24,2.24,0,0,0-.47,2.32,4.58,4.58,0,0,1-1.24,5.28,3.62,3.62,0,0,0-.88,1.42,2.43,2.43,0,0,1-.16.37,43.59,43.59,0,0,0-2.11,4,6.72,6.72,0,0,1-4.74,3.48,2.7,2.7,0,0,1-2.7-1,5.61,5.61,0,0,1-.93-1.56c-.81-2-1.62-3.95-2.4-5.93a5.43,5.43,0,0,1-.05-3.89c.11-.3.17-.61.26-.91a2.18,2.18,0,0,0-.55-2.24,4.43,4.43,0,0,1-1.35-3.4c0-.63-.33-.82-.89-.82a9.75,9.75,0,0,0-1.78.31A7.66,7.66,0,0,1,17.51,32a8.06,8.06,0,0,1,2-5.24c1.2-1.37,2.21-2.89,3.41-4.26.27-.3.15-.51,0-.76-1-1.41-2-2.83-3-4.22a2,2,0,0,1-.25-2.2c.76-1.75,1.47-3.52,2.18-5.29a2.1,2.1,0,0,1,1.33-1.24c2.53-.87,5-1.78,7.57-2.63a3,3,0,0,0,1.65-1.18c.46-.64,1-1.23,1.5-1.9A3.91,3.91,0,0,0,32.17,3,31.68,31.68,0,0,0,15.44,9.25c-.42.31-.33.45,0,.72a5.76,5.76,0,0,1,.62,8.77,26,26,0,0,0-3.8,5.85A8.72,8.72,0,0,1,9,28.27c-.52.29-.48.57-.15,1A18.72,18.72,0,0,1,10,31,1.38,1.38,0,0,1,9,33.22c-1.3.25-2.61.43-3.93.59a2.11,2.11,0,0,1-2.19-.7,17.61,17.61,0,0,0,0,3c0,.39.3.24.5.18.82-.25,1.64-.49,2.44-.79a1.88,1.88,0,0,1,2,.33c1.36,1.07,2.79,2.05,4.11,3.16a6,6,0,0,0,3.2,1.41,5.53,5.53,0,0,1,3.32,1.32,4,4,0,0,1,1.29,3.78,4.62,4.62,0,0,0,.18,2.5,4.26,4.26,0,0,1-2.63,5.73,1,1,0,0,0-.66.83q-.44,2.43-.93,4.83a1,1,0,0,0,.47,1.18,31.41,31.41,0,0,0,13.89,5.53,31,31,0,0,0,14.67-1.43l1-.35a1.44,1.44,0,0,1,1.95.81,1.46,1.46,0,0,1-1,1.89,37,37,0,0,1-4.58,1.36c-1.56.37-3.14.53-4.71.76H31.68a4.35,4.35,0,0,0-.52-.1A34.65,34.65,0,0,1,1.08,43.44,45.36,45.36,0,0,1,0,37.56Zm28.4-8.21c-.65,0-1.39.1-2.13.17a2,2,0,0,0-1.58.89,44.88,44.88,0,0,1-3,3.76,5.45,5.45,0,0,0-.3,6.77A4.66,4.66,0,0,0,26.36,37c.55-.12,1.1-.26,1.65-.34a3.51,3.51,0,0,1,4.29,3.12,3.8,3.8,0,0,0,1.1,2.56,1.7,1.7,0,0,1,.15.22A5.14,5.14,0,0,1,34,47.19a4.28,4.28,0,0,0,.11,3.26c.68,1.61,1.33,3.24,2,4.85a6.66,6.66,0,0,0,.45.83.37.37,0,0,0,.51.2,4.25,4.25,0,0,0,2.49-2.14,9.77,9.77,0,0,1,1.77-3.36,1.21,1.21,0,0,0,.24-.48,5.93,5.93,0,0,1,1.62-2.52,1.8,1.8,0,0,0,.53-2.07,5.46,5.46,0,0,1,1.67-6.1c.76-.73,1.49-1.49,2.24-2.23.36-.35.28-.49-.19-.55a5.12,5.12,0,0,1-3.91-3,23,23,0,0,1-1.81-4.06,4.33,4.33,0,0,0-3.8-3.38,1.1,1.1,0,0,1-.26-.06.61.61,0,0,0-.72.2,2.58,2.58,0,0,1-3.25.58,25,25,0,0,1-3.07-1.81,1.54,1.54,0,0,1-.8-1.18c-.05-.43-.27-.52-.64-.5C28.94,23.71,28.71,23.69,28.4,23.69ZM17,44.87a1.38,1.38,0,0,0-1.13-1.45c-.72-.17-1.45-.3-2.18-.44a4.59,4.59,0,0,1-2.18-.8c-1-.8-2-1.55-3-2.29-.72-.52-1.33-1.43-2.18-1.49a8.22,8.22,0,0,0-2.56.74c-.41.12-.57.29-.48.76a34.31,34.31,0,0,0,.83,3.61,32,32,0,0,0,8.58,14.1c.1.11.19.3.37.23s.13-.26.16-.41c.26-1.37.59-2.73.77-4.1a2.28,2.28,0,0,1,1.86-2.15c1.58-.44,1.82-1,1.3-2.61a5.11,5.11,0,0,1-.2-3.36A1.69,1.69,0,0,0,17,44.87ZM6.32,30.67c-.32-.47-.64-.92-.94-1.39A1.51,1.51,0,0,1,5.79,27c.63-.47,1.25-.95,1.92-1.37a5.46,5.46,0,0,0,1.78-2c1.46-2.44,2.54-5.13,4.7-7.1a1.67,1.67,0,0,0,.12-.16,3.08,3.08,0,0,0-1.05-4.57.73.73,0,0,0-1,.13c-.67.73-1.38,1.42-2,2.18A31.78,31.78,0,0,0,3.33,28.9a1.14,1.14,0,0,0,0,.66A2.38,2.38,0,0,0,6.32,30.67Z"/><path d="M50.39,57.15a3.35,3.35,0,0,1-3.24-3.09,5.15,5.15,0,0,1,.42-2.23,3.48,3.48,0,0,0,.26-1.71,3.48,3.48,0,0,1,2.29-3.84,2.69,2.69,0,0,0,1.43-1.44,6.77,6.77,0,0,1,.61-1.2,1.34,1.34,0,0,1,2.4.16c.54,1.45,1.11,2.9.49,4.55-.69,1.82-1.09,3.74-1.77,5.57a6.65,6.65,0,0,1-1.36,2.38A2.42,2.42,0,0,1,50.39,57.15ZM50.11,54a30.7,30.7,0,0,0,1.72-5c0-.14.09-.33-.16-.36-.42,0-1.08.61-1,1.05a5.2,5.2,0,0,1-.41,3A1.8,1.8,0,0,0,50.11,54Z"/><path d="M35.88,18.76a1.42,1.42,0,0,1-1.4-1.48A1.38,1.38,0,0,1,36,16a1.48,1.48,0,0,1,1.42,1.49A1.4,1.4,0,0,1,35.88,18.76Z"/><path d="M52.48,63.39A1.46,1.46,0,0,1,51,64.75a1.4,1.4,0,0,1-1.35-1.47,1.44,1.44,0,0,1,1.48-1.35A1.36,1.36,0,0,1,52.48,63.39Z"/></g></g></svg>