<svg xmlns="http://www.w3.org/2000/svg" viewBox="0 0 52.73 44.85"><defs><style>.cls-1{fill:#9c0001;}.cls-2{fill:#fa1111;}.cls-3{fill:#cc0101;}.cls-4{fill:#fa2525;}.cls-5{fill:#e60101;}.cls-6{fill:#fa3d3d;}.cls-7{fill:#d60101;}.cls-8{fill:#8e0000;}.cls-9{fill:#470203;}.cls-10{fill:#7b0101;}.cls-11{fill:#670001;}.cls-12{fill:#ad0001;}.cls-13{fill:#bd0101;}.cls-14{fill:#fb7272;}.cls-15{fill:#f80101;}</style></defs><g id="Layer_2" data-name="Layer 2"><g id="Layer_1-2" data-name="Layer 1"><path class="cls-1" d="M43.09,33.85c-1.42,1.3-3,2.4-4.51,3.6-1,.83-2.12,1.62-3.18,2.43l0,0c.26-2.3.12-4.6.18-7A10.89,10.89,0,0,0,34,34c-2,1.29-3.78,2.78-5.69,4.14a4.78,4.78,0,0,0-1.68,1.42.55.55,0,0,1-.6-.35c-.22-.4-.47-.78-.7-1.17l-4.05-7a.41.41,0,0,0-.41-.28c0-.15-.11-.21-.24-.28-1.29-.74-2.6-1.46-3.84-2.27-1-.65-2.06-1.21-3.06-1.86a7.71,7.71,0,0,1-2.18-1.48c.07-.16.21-.21.36-.28,1-.5,2.2-.65,3.26-1.08.91-.37,1.86-.63,2.8-.94s2.12-.75,3.18-1.12h.27c0,.54,0,1.09,0,1.64-.09,2.31-.18,4.63-.28,6.94,0,.53.11.68.6.37.95-.61,1.9-1.22,2.88-1.79a18.6,18.6,0,0,1,3.11-1.82,36.45,36.45,0,0,0,3.51,2.67c1.33.94,2.62,1.95,3.93,2.93.17.13.32.4.51,0,.42,0,.53-.37.76-.6,1.75-1.8,3.56-3.54,5.22-5.44a.64.64,0,0,1,.59-.26c0,.05.11.1.11.16q.23,2.84.44,5.67A6.36,6.36,0,0,0,43.09,33.85Z"/><path class="cls-2" d="M42.54.21C44.73,1.4,46.88,2.62,49,3.93a.55.55,0,0,1-.26.45c-1.1.74-2.2,1.48-3.27,2.26a6.79,6.79,0,0,0-1.55,1.17,1.23,1.23,0,0,0-.59.15c-2,.94-3.93,1.87-5.88,2.82a21.17,21.17,0,0,0-3,1.55.3.3,0,0,0-.27.14c-1,1.1-2.12,2.17-3.09,3.32a39.84,39.84,0,0,0-2.67,3h-.14a1,1,0,0,1-.28-.6L26.23,9.73h0c.24.06.49.11.72.18,2.23.71,4.46,1.42,6.68,2.16.53.18.73,0,.86-.47.29-1.14.65-2.26.94-3.41.4-1.63,1-3.21,1.25-4.88.76-.07,1.16.55,1.71.88,1.69,1,3.35,2.05,5,3.09.13.08.22.3.4.18s.11-.34.08-.51C43.45,4.73,43,2.51,42.54.3A.08.08,0,0,0,42.54.21Z"/><path class="cls-3" d="M52.69,11.64a16.61,16.61,0,0,1,0,2.34,13.21,13.21,0,0,0,0,4L48.9,26.88c-.3-.08-.32-.35-.41-.58-.35-.93-.49-1.93-.84-2.87s-.48-1.91-.75-2.85c-.19-.63-.44-1.24-.69-2-.35.55-.68,1-.93,1.46-.64,1.25-1.19,2.54-2,3.72A2.52,2.52,0,0,0,42.78,25a.71.71,0,0,1-.79.6c-1.64-.32-3.14-1.08-4.75-1.51-.48-.13-1.09-.18-1.42-.69.21-.43.68-.49,1-.67,3-1.5,6.12-2.63,9-4.39h.27a4.22,4.22,0,0,1,.46-.38c.59-.36.81-1.11,1.46-1.4a.4.4,0,0,0,.27-.41c.85-1,1.85-1.89,2.72-2.88A6.43,6.43,0,0,1,52.69,11.64Z"/><path class="cls-4" d="M20.6,1.94c.61.17.95.69,1.36,1.09a6.69,6.69,0,0,1,1.54,1.6,36.2,36.2,0,0,1-1.61,4.24c-.76,1.85-1.65,3.65-2.38,5.52h0A2.2,2.2,0,0,1,19,13.28c-.55-2-1.07-3.94-1.63-5.91-.06-.22,0-.59-.35-.66-.13-.44-.48-.28-.74-.23-1.57.33-3.14.74-4.72,1a30.13,30.13,0,0,1-3.88.73V8.09a19.71,19.71,0,0,0,2-2.61A10.08,10.08,0,0,0,11.43,3l.68-.14a13.5,13.5,0,0,0,1.55-.13c1.69,0,3.37-.29,5.05-.47C19.33,2.22,20,2.43,20.6,1.94Z"/><path class="cls-5" d="M48,16.58c-.65.29-.87,1-1.46,1.4a4.22,4.22,0,0,0-.46.38,49.1,49.1,0,0,0-.92-5.1,36.19,36.19,0,0,0-.75-3.7c-.15-.58,0-1.26-.52-1.75a6.79,6.79,0,0,1,1.55-1.17c1.07-.78,2.17-1.52,3.27-2.26A.55.55,0,0,0,49,3.93c.33.07.38.37.49.6,1,2,2,4,2.82,6.09.14.34.52.58.39,1A6.43,6.43,0,0,0,51,13.29c-.87,1-1.87,1.87-2.72,2.88C48,16.18,48,16.38,48,16.58Z"/><path class="cls-6" d="M36.69,3.31c-.25,1.66-.85,3.24-1.25,4.87-.29,1.15-.65,2.27-.94,3.41-.13.52-.33.65-.86.47-2.22-.74-4.45-1.45-6.68-2.16-.23-.07-.48-.12-.72-.18V9.58l.13-.12a1.13,1.13,0,0,0,.56-.24l7-4.3c.77-.47,1.54-1,2.33-1.47a.56.56,0,0,0-.54-.17c-1.47.16-2.93.33-4.4.48a4.58,4.58,0,0,1-1.65.08l6-3.54a1.08,1.08,0,0,1,.58-.16h6.07a1.17,1.17,0,0,1,.25.07.08.08,0,0,1,0,.09c-2,0-4,0-6.07,0-.46,0-.53.14-.4.57a6,6,0,0,1,.58,2.29l-.17.11.17,0Z"/><path class="cls-7" d="M7.72,8.09V8.5a4.6,4.6,0,0,0-.51,2.05c-.24,1.25-.52,2.5-.77,3.76S5.93,16.72,5.8,18H5.53c-.8-1.22-1.59-2.45-2.42-3.64S1.36,12.07.61,10.85c-.14-.22-.28-.42-.56-.44a.89.89,0,0,1,0-.66c.67-1.46,1.36-2.91,2-4.36,0-.09.16-.15.24-.23.17.39.55.51.87.73.91.61,2,1,2.88,1.59a2.46,2.46,0,0,0,1.47.61Z"/><path class="cls-8" d="M11.56,24.94a7.71,7.71,0,0,0,2.18,1.48c1,.65,2.06,1.21,3.06,1.86,1.24.81,2.55,1.53,3.84,2.27.13.07.23.13.24.28a1,1,0,0,1-.4.24c-1.57.26-3.07.8-4.62,1.15-1.19.26-2.35.62-3.54.88-1,.22-2,.58-3,.77l-.12-.15a4.51,4.51,0,0,0,.66-2.06c.25-1.19.45-2.39.66-3.59A9.49,9.49,0,0,0,11,24.94h.54Z"/><path class="cls-9" d="M35.4,39.88l-6.5,3.71a10.68,10.68,0,0,0-1.48.84,1.76,1.76,0,0,1-2.25,0c-2.45-1.43-5-2.76-7.45-4.13-.16-.09-.3-.2-.45-.3,3.12-.19,6.24-.32,9.37-.3,2.92-.07,5.82.26,8.74.13Z"/><path class="cls-10" d="M9.33,33.87c1-.19,2-.55,3-.77,1.19-.26,2.35-.62,3.54-.88,1.55-.35,3.05-.89,4.62-1.15a1,1,0,0,0,.4-.24.41.41,0,0,1,.41.28c-.13,0-.35,0-.36.12,0,.66-.55,1.08-.75,1.66-.77,2.21-1.95,4.24-2.75,6.44a.61.61,0,0,1-.56.43C14.32,37.84,11.78,35.9,9.33,33.87Z"/><path class="cls-11" d="M16.87,39.76a.61.61,0,0,0,.56-.43c.8-2.2,2-4.23,2.75-6.44.2-.58.71-1,.75-1.66,0-.14.23-.11.36-.12l4.05,7c.23.39.48.77.7,1.17a.55.55,0,0,0,.6.35v.13c-3.13,0-6.25.11-9.37.3A.46.46,0,0,1,16.87,39.76Z"/><path class="cls-12" d="M11,24.94a9.49,9.49,0,0,1-.49,3.13c-.21,1.2-.41,2.4-.66,3.59a4.51,4.51,0,0,1-.66,2.06L4,27.12c-.54-.67-1.05-1.36-1.57-2.05a1.48,1.48,0,0,1,.86-.13Z"/><path class="cls-1" d="M11,24.94H3.26a1.48,1.48,0,0,0-.86.13c-.16-.07-.18-.23-.23-.38.28-.07.36-.33.47-.54.7-1.41,1.46-2.79,2.08-4.23a6.14,6.14,0,0,0,.82-2H5.8a1,1,0,0,0,.24.56C7.24,20,8.46,21.46,9.64,23a7.09,7.09,0,0,1,1.37,2Z"/><path class="cls-13" d="M42,25.63a.71.71,0,0,0,.79-.6,2.52,2.52,0,0,1,.55-1.23c.76-1.18,1.31-2.47,2-3.72.25-.47.58-.91.93-1.46.25.72.5,1.33.69,2,.27.94.41,1.93.75,2.85s.49,1.94.84,2.87c.09.23.11.5.41.58a.74.74,0,0,1-.32.56c-.27-.67-.9-.36-1.37-.5a32,32,0,0,0-5-1A.45.45,0,0,1,42,25.63Z"/><path class="cls-3" d="M42.26,25.9a32,32,0,0,1,5,1c.47.14,1.1-.17,1.37.5l-5.49,6.41A6.36,6.36,0,0,1,42.81,32q-.21-2.83-.44-5.67c0-.06-.07-.11-.11-.16Z"/><path class="cls-3" d="M.05,10.41c.28,0,.42.22.56.44.75,1.22,1.69,2.3,2.5,3.47S4.73,16.74,5.53,18h0c-.74.09-1.44.36-2.17.5-1.11.23-2.22.44-3.32.72C0,16.26,0,13.34.05,10.41Z"/><path class="cls-2" d="M26.23,9.58v.14h0a33,33,0,0,0-3.43,2.41,30.82,30.82,0,0,1-3.29,2.25c.73-1.87,1.62-3.67,2.38-5.52A36.2,36.2,0,0,0,23.5,4.63c.29.07.32.36.43.57C24.72,6.65,25.37,8.17,26.23,9.58Z"/><path class="cls-14" d="M29.65,3.84a4.58,4.58,0,0,0,1.65-.08c1.47-.15,2.93-.32,4.4-.48a.56.56,0,0,1,.54.17c-.79.5-1.56,1-2.33,1.47l-7,4.3a1.13,1.13,0,0,1-.56.24c.87-1.83,1.9-3.56,2.87-5.33A.5.5,0,0,1,29.65,3.84Z"/><path class="cls-5" d="M7.58,8.09a2.46,2.46,0,0,1-1.47-.61c-.91-.63-2-1-2.88-1.59-.32-.22-.7-.34-.87-.73,1.42-1.31,2.86-2.59,4.36-3.8H6.9c.07.67.13,1.35.19,2A39,39,0,0,1,7.58,8.09Z"/><path class="cls-13" d="M.05,19.18c1.1-.28,2.21-.49,3.32-.72.73-.14,1.43-.41,2.17-.5a6.14,6.14,0,0,1-.82,2c-.62,1.44-1.38,2.82-2.08,4.23-.11.21-.19.47-.47.54C1.45,22.86.66,21.06.05,19.18Z"/><path class="cls-2" d="M20.6,1.94c-.56.49-1.27.28-1.89.34-1.68.18-3.36.44-5.05.47a13.5,13.5,0,0,1-1.55.13c0-.1.05-.26.13-.3,1.37-.8,2.68-1.72,4.11-2.41Z"/><path class="cls-15" d="M16.35.17c-1.43.69-2.74,1.61-4.11,2.41-.08,0-.09.2-.13.3L11.43,3V2.88a.27.27,0,0,0,.12-.3c-.13-.6-.23-1.2-.38-1.79s-.09-.7.5-.67c.84.05,1.69,0,2.54,0A10.32,10.32,0,0,1,16.35.17Z"/><path class="cls-7" d="M14.2.13c-.85,0-1.7,0-2.54,0-.59,0-.63.19-.5.67s.25,1.19.38,1.79a.27.27,0,0,1-.12.3c-.33-.12-.66-.26-1-.37A22.48,22.48,0,0,0,6.9,1.37H6.72A15.72,15.72,0,0,1,9.28.5,10,10,0,0,1,14.2.13Z"/><path class="cls-13" d="M52.65,18a13.21,13.21,0,0,1,0-4A37.56,37.56,0,0,1,52.65,18Z"/><path class="cls-3" d="M28.28,18.78h.14c0,.43.35.61.66.8,1.37.84,2.76,1.67,4.13,2.5a5.74,5.74,0,0,0,1.93,1.08v.27a2.57,2.57,0,0,1-1.38.8A29.27,29.27,0,0,0,31,25.37a23.87,23.87,0,0,0-3.25,1.49,18.6,18.6,0,0,0-3.11,1.82c-1,.57-1.93,1.18-2.88,1.79-.49.31-.62.16-.6-.37.1-2.31.19-4.63.28-6.94,0-.55,0-1.1,0-1.64v-.14c.56-.19,1.12-.38,1.68-.55,1.49-.45,2.85-1.26,4.37-1.65.25-.06.25-.22.25-.4C27.92,18.84,28.1,19,28.28,18.78Z"/><path class="cls-13" d="M11,24.94a7.09,7.09,0,0,0-1.37-2c-1.18-1.5-2.4-3-3.6-4.44A1,1,0,0,1,5.8,18h0c.44.13.77-.22,1.16-.27,2.2-.28,4.35-.84,6.53-1.24l.53,0a.77.77,0,0,0,.49.75c2.21,1.14,4.19,2.66,6.37,3.86a.47.47,0,0,1,.28.49c-1.06.37-2.12.77-3.18,1.12s-1.89.57-2.8.94c-1.06.43-2.22.58-3.26,1.08-.15.07-.29.12-.36.28Z"/><path class="cls-13" d="M27.74,26.86A23.87,23.87,0,0,1,31,25.37a29.27,29.27,0,0,1,2.77-1.14,2.57,2.57,0,0,0,1.38-.8h.27c-.1,2.33.13,4.65.17,7a16,16,0,0,0,.11,2.07c-.19.38-.34.11-.51,0-1.31-1-2.6-2-3.93-2.93A36.45,36.45,0,0,1,27.74,26.86Z"/><path class="cls-10" d="M26.64,39.73V39.6a4.78,4.78,0,0,1,1.68-1.42C30.23,36.82,32,35.33,34,34a10.89,10.89,0,0,1,1.55-1.14c-.06,2.36.08,4.66-.18,7C32.46,40,29.56,39.66,26.64,39.73Z"/><path class="cls-12" d="M35.69,32.48a16,16,0,0,1-.11-2.07c0-2.32-.27-4.64-.17-7h.41c.33.51.94.56,1.42.69,1.61.43,3.11,1.19,4.75,1.51a.45.45,0,0,0,.27.27v.28a.64.64,0,0,0-.59.26c-1.66,1.9-3.47,3.64-5.22,5.44C36.22,32.11,36.11,32.5,35.69,32.48Z"/><path class="cls-12" d="M21.16,21.52a.47.47,0,0,0-.28-.49c-2.18-1.2-4.16-2.72-6.37-3.86a.77.77,0,0,1-.49-.75,39.9,39.9,0,0,1,5.35-1.77l.15.14c.26.91.52,1.82.8,2.72a39.76,39.76,0,0,1,1.11,3.87v.14Z"/><path class="cls-5" d="M35.82,23.43h-.68v-.27a.82.82,0,0,0,.12-.78c-.23-1.24-.16-2.51-.36-3.77a41.6,41.6,0,0,1-.45-5.47.87.87,0,0,0-.27-.67.3.3,0,0,1,.27-.14c.12.19.34.11.49.19,2,1,3.91,2.11,5.92,3.07,1.44.68,2.82,1.5,4.25,2.23.25.13.63.17.72.55-2.85,1.76-6,2.89-9,4.39C36.5,22.94,36,23,35.82,23.43Z"/><path class="cls-15" d="M45.83,18.37c-.09-.38-.47-.42-.72-.55-1.43-.73-2.81-1.55-4.25-2.23-2-1-3.93-2.07-5.92-3.07-.15-.08-.37,0-.49-.19a21.17,21.17,0,0,1,3-1.55c2-.95,3.92-1.88,5.88-2.82a1.23,1.23,0,0,1,.59-.15c.47.49.37,1.17.52,1.75a36.19,36.19,0,0,1,.75,3.7,49.1,49.1,0,0,1,.92,5.1Z"/><path class="cls-7" d="M34.18,12.47a.87.87,0,0,1,.27.67,41.6,41.6,0,0,0,.45,5.47c.2,1.26.13,2.53.36,3.77a.82.82,0,0,1-.12.78,5.74,5.74,0,0,1-1.93-1.08c-1.37-.83-2.76-1.66-4.13-2.5-.31-.19-.64-.37-.66-.8a39.84,39.84,0,0,1,2.67-3C32.06,14.64,33.14,13.57,34.18,12.47Z"/><path class="cls-5" d="M19.52,14.79l-.15-.14.14-.26h0a30.82,30.82,0,0,0,3.29-2.25,33,33,0,0,1,3.43-2.41L28,18.18a1,1,0,0,0,.28.6c-.18.24-.36.06-.55,0-1.93-1-3.84-2-5.81-3A9.48,9.48,0,0,0,19.52,14.79Z"/><path class="cls-4" d="M36.65,3.13A6,6,0,0,0,36.07.84c-.13-.43-.06-.57.4-.57,2,0,4.05,0,6.07,0,.46,2.21.91,4.43,1.36,6.64,0,.17.09.39-.08.51s-.27-.1-.4-.18c-1.67-1-3.33-2.08-5-3.09-.55-.33-.95-.95-1.71-.88h0Z"/><path class="cls-7" d="M48,16.58c0-.2,0-.4.27-.41A.4.4,0,0,1,48,16.58Z"/><path class="cls-15" d="M7.73,8.5V8.22a30.13,30.13,0,0,0,3.88-.73c1.58-.27,3.15-.68,4.72-1,.26-.05.61-.21.74.23a2.19,2.19,0,0,0-.17.29c-.73,1.73-1.25,3.53-1.87,5.3-.27.78-.62,1.54-.82,2.36-.11.48-.15,1.09-.72,1.38-.19,0-.26-.15-.36-.28-.74-1-1.5-2-2.23-3C9.84,11.33,8.9,9.83,7.73,8.5Z"/><path class="cls-2" d="M13.48,16c.57-.29.61-.9.72-1.38.2-.82.55-1.58.82-2.36.62-1.77,1.14-3.57,1.87-5.3a2.19,2.19,0,0,1,.17-.29c.39.07.29.44.35.66.56,2,1.08,3.94,1.63,5.91a2.2,2.2,0,0,0,.47,1.11l-.14.26A39.9,39.9,0,0,0,14,16.42l-.53,0C13.49,16.3,13.49,16.17,13.48,16Z"/><path class="cls-2" d="M6.9,1.37a22.48,22.48,0,0,1,3.51,1.14c.35.11.68.25,1,.37V3A10.08,10.08,0,0,1,9.76,5.48a19.71,19.71,0,0,1-2,2.61H7.58a39,39,0,0,0-.49-4.7C7,2.72,7,2,6.9,1.37Z"/><path class="cls-14" d="M36.65,3.13v.16l-.17,0Z"/><path class="cls-3" d="M13.48,16c0,.13,0,.26,0,.4-2.18.4-4.33,1-6.53,1.24-.39.05-.72.4-1.16.27.13-1.23.41-2.43.65-3.64s.53-2.51.77-3.76A4.6,4.6,0,0,1,7.73,8.5c1.17,1.33,2.11,2.83,3.16,4.25.73,1,1.49,2,2.23,3C13.22,15.89,13.29,16,13.48,16Z"/><path class="cls-13" d="M19.52,14.79a9.48,9.48,0,0,1,2.4,1c2,.93,3.88,2,5.81,3,0,.18,0,.34-.25.4-1.52.39-2.88,1.2-4.37,1.65-.56.17-1.12.36-1.68.55a39.76,39.76,0,0,0-1.11-3.87C20,16.61,19.78,15.7,19.52,14.79Z"/></g></g></svg>