<svg xmlns="http://www.w3.org/2000/svg" viewBox="0 0 72.86 69.11"><g id="Layer_2" data-name="Layer 2"><g id="Layer_1-2" data-name="Layer 1"><path d="M72.86,17.76A25.81,25.81,0,0,1,70,26a41.2,41.2,0,0,1-7.46,9.46A154.3,154.3,0,0,1,49.12,46.69c-2.87,2.25-5.76,4.47-8.48,6.91a.68.68,0,0,0-.23.91c1.73,3.88.92,7.39-1.61,10.63a13,13,0,0,1-3.27,3.13c-2.94,1.82-5.94.58-6.68-2.8a8.18,8.18,0,0,1,0-3,12.22,12.22,0,0,1,2-5.13,36.42,36.42,0,0,1,2.54-3.6c.32-.37.31-.58,0-.92a54,54,0,0,0-8.62-6.49c-4.6-2.92-9.39-5.53-13.73-8.85a31.33,31.33,0,0,1-8.2-8.78A19.25,19.25,0,0,1,.11,16.59,19.1,19.1,0,0,1,4.55,5.86,15.92,15.92,0,0,1,15.61.1c8-.72,14.45,2.57,20,8.11A24.77,24.77,0,0,1,37.88,11c.49.67.5.68,1,0a25.93,25.93,0,0,1,6.49-6.6A18.42,18.42,0,0,1,55.94.85c5,0,9.6,1.29,13.18,5.08a14.25,14.25,0,0,1,3.62,7.44c0,.18.08.36.12.55Zm-55-12.65a14.22,14.22,0,0,0-2.35.17A11.77,11.77,0,0,0,8.32,9.12,13.23,13.23,0,0,0,5.16,17,15.42,15.42,0,0,0,8.1,27.52a29.23,29.23,0,0,0,6.83,6.58c4,2.89,8.29,5.24,12.42,7.88A51.38,51.38,0,0,1,37,49.5c.37.38.57.22.87,0,2.88-2.51,5.91-4.82,8.92-7.17A118.72,118.72,0,0,0,60.49,30.42a33.59,33.59,0,0,0,6-8.24,12.08,12.08,0,0,0,1.25-8.39A10.79,10.79,0,0,0,57.46,5.86c-5.4-.12-9.67,2.23-13.16,6.21a30.89,30.89,0,0,0-3.65,5.66c-.93,1.71-2.29,1.87-3.7.52a13,13,0,0,1-2.22-2.94A20.61,20.61,0,0,0,31,10.73,19.43,19.43,0,0,0,17.84,5.11ZM36.26,58a8.45,8.45,0,0,0-1.82,4.43A6.14,6.14,0,0,0,36.26,58Z"/></g></g></svg>