<svg xmlns="http://www.w3.org/2000/svg" viewBox="0 0 950.74 160.54"><g id="Layer_2" data-name="Layer 2"><g id="Layer_1-2" data-name="Layer 1"><path d="M74.19,46.91a37.45,37.45,0,0,0-21.07-6,44,44,0,0,0-21.41,5.39q-9.87,5.39-18,16.26V2.79H0V149.16H13.66V110.47q0-21.07,1.83-28.77A38,38,0,0,1,28.34,61.54a33.59,33.59,0,0,1,22.09-8.13q10.77,0,17.41,5.24T77,74.39q1.53,6.15,1.54,24.44v50.33H92V94.88Q92,73.15,87.67,63A35.77,35.77,0,0,0,74.19,46.91Z"/><path d="M125.68,0a10.75,10.75,0,0,0-7.89,3.27,10.75,10.75,0,0,0-3.27,7.89,10.91,10.91,0,0,0,3.27,7.94,10.65,10.65,0,0,0,7.89,3.32,10.8,10.8,0,0,0,7.94-3.32,10.84,10.84,0,0,0,3.32-7.94,10.68,10.68,0,0,0-3.32-7.89A10.91,10.91,0,0,0,125.68,0Z"/><rect x="118.94" y="43.4" width="13.57" height="105.57"/><path d="M255.11,59A57.15,57.15,0,0,0,236,43.35a52.36,52.36,0,0,0-23.19-5.15q-22.34,0-38.21,16.27T158.69,93.92a53.44,53.44,0,0,0,16,39q16,16.15,38.49,16.16a59.71,59.71,0,0,0,24.21-4.95,60.84,60.84,0,0,0,20.83-15.64q8.65-14.43,10.39-28.39V.1H255.11ZM244,123.75a40,40,0,0,1-29.64,12.32,40.66,40.66,0,0,1-21-5.63A41.44,41.44,0,0,1,178,114.8a42.55,42.55,0,0,1-5.68-21.36A43.27,43.27,0,0,1,178.08,72a41.18,41.18,0,0,1,15.39-15.88,40.42,40.42,0,0,1,20.65-5.63,42.59,42.59,0,0,1,21.17,5.63,39.18,39.18,0,0,1,15.39,15.3,43.56,43.56,0,0,1,5.39,21.61Q256.07,111.44,244,123.75Z"/><path d="M390.89,59a57.15,57.15,0,0,0-19.15-15.64,52.3,52.3,0,0,0-23.19-5.15q-22.32,0-38.2,16.27T294.47,93.92a53.44,53.44,0,0,0,16,39q16,16.15,38.5,16.16a59.7,59.7,0,0,0,24.2-4.95A60.75,60.75,0,0,0,394,128.47q8.67-14.43,10.4-28.39V.1H390.89Zm-11.16,64.76a40,40,0,0,1-29.64,12.32,40.71,40.71,0,0,1-21-5.63,41.51,41.51,0,0,1-15.25-15.64,42.65,42.65,0,0,1-5.68-21.36A43.27,43.27,0,0,1,313.86,72a41.2,41.2,0,0,1,15.4-15.88,40.41,40.41,0,0,1,20.64-5.63,42.57,42.57,0,0,1,21.17,5.63,39.27,39.27,0,0,1,15.4,15.3,43.67,43.67,0,0,1,5.39,21.61Q391.86,111.44,379.73,123.75Z"/><path d="M524.27,58.7q-16.17-20.49-43-20.5-26.28,0-41.87,20A56.4,56.4,0,0,0,427.08,94q0,21.27,14.53,38.15t40.32,16.89a58.46,58.46,0,0,0,20.88-3.51,52,52,0,0,0,16.65-10.25,59.11,59.11,0,0,0,12.89-17.8L521,111.44q-6.25,10.4-11.6,15a41.94,41.94,0,0,1-12.94,7.46,44.57,44.57,0,0,1-15.69,2.84,37.33,37.33,0,0,1-28-11.79Q441.42,113.17,441,94.69h94.79Q535.71,73.13,524.27,58.7Zm-81.8,24.35q4.14-14.53,12.23-21.85a38.56,38.56,0,0,1,26.65-10,42.13,42.13,0,0,1,18,4,37.61,37.61,0,0,1,13.76,10.49q5.19,6.5,7.89,17.37Z"/><path d="M634.22,46.72a42.56,42.56,0,0,0-22.09-6q-15.3-.3-27.23,4.81A59.29,59.29,0,0,0,570.75,57q-7.12,8.47-9.24,26.66a72.17,72.17,0,0,0-.67,14.05l.19,11.25v40H574.7V110.28q0-20.88,1.83-28.77-.67-12.32,9-19.44A35.88,35.88,0,0,1,607.42,55q14,0,21.07,4.38T638,74.19q1.53,6.16,1.54,24.45V149H653V94.69q0-21.64-4.33-31.8A34.12,34.12,0,0,0,634.22,46.72Z"/><path d="M948.1,128.48q-2.69-3.66-10.28-7.55-6.21-3.17-8.12-5.62a7.3,7.3,0,0,1-2-4.8,6.77,6.77,0,0,1,2.35-5.15,8.09,8.09,0,0,1,5.67-2.16q5.14,0,10.62,5.29L950.7,104q-7.41-7.11-14.66-7.11a14.27,14.27,0,0,0-10.31,4,13.29,13.29,0,0,0-4.11,10,13.49,13.49,0,0,0,2.6,8.17q2.55,3.66,9.7,7.26,6.65,3.41,8.51,5.67a7.9,7.9,0,0,1,1.87,5.19,8.09,8.09,0,0,1-2.85,6.13,9.89,9.89,0,0,1-6.9,2.62q-5.82,0-11-5.87l-4.27,4.86a18.12,18.12,0,0,0,6.85,5.45,20.26,20.26,0,0,0,8.72,1.95,15.47,15.47,0,0,0,11.36-4.5,14.76,14.76,0,0,0,4.54-10.93A14,14,0,0,0,948.1,128.48Z"/><polygon points="692.37 22.88 717.22 22.88 717.22 151.16 737.69 151.16 737.69 2.6 704.82 2.6 692.37 22.88"/><path d="M928.11,44.2l-.17-.81c-1.39-6.65-3.8-15.26-10.1-22.82C900.6-.16,875.64-4.89,851.07,7.91c-3.14,1.64-6.1,3.48-9,5.28-8.18-5.44-15.79-8.91-23.63-10.82a50.56,50.56,0,0,0-61.6,39.24s0,0,0,0l-.3.8-.44,1.28V54.42l.28,1c.44,1.62.84,3.25,1.24,4.89a90.21,90.21,0,0,0,3.57,12.11c6.75,17,18.07,30.6,28.25,41.67A318.19,318.19,0,0,0,838,156.86l5.09,3.68,4.77-4.1c3.48-3,7-5.91,10.52-8.84,7.85-6.54,16-13.3,23.54-20.6,20.28-19.58,40.55-41.28,46-72.26ZM791.3,73.25c-4.59-7.39-7.09-13.36-8.1-19.35-1.7-10,2.35-17.92,12-23.46a22.31,22.31,0,0,1,11.2-3.18,23.64,23.64,0,0,1,10.26,2.51,149.86,149.86,0,0,1,14.76,8.54c2.41,1.52,4.87,3.06,7.42,4.58l5,3,4.37-3.82c8-7,14.78-11.12,21.94-13.34a25.23,25.23,0,0,1,19.67,2.18,22.28,22.28,0,0,1,11,13.85c1.19,4.64.66,9.54-1.72,15.91-4.23,11.33-11.6,21-17.54,28.09-10.49,12.58-23.13,24.68-39.49,37.79l-.08-.07c-3.54-2.88-7.21-5.86-10.64-8.87C817,105,802.25,90.9,791.3,73.25Z"/></g></g></svg>