<svg xmlns="http://www.w3.org/2000/svg" viewBox="0 0 44.03 46.47"><defs><style>.cls-1{fill:#fff;}</style></defs><g id="Layer_2" data-name="Layer 2"><g id="Layer_1-2" data-name="Layer 1"><path class="cls-1" d="M33.76,0A10.24,10.24,0,0,0,23.59,10.26,10,10,0,0,0,33.88,20.55,10,10,0,0,0,44,10.38,10.2,10.2,0,0,0,33.76,0Z"/><path class="cls-1" d="M17,38.92c-5,0-9.93,0-14.9,0a2.72,2.72,0,0,1-1.85-.81c-.56-.68.06-1.34.57-1.9C1.89,35,3,33.75,4.08,32.57a4.26,4.26,0,0,0,1.21-3.1c0-2,0-4,0-6A11.48,11.48,0,0,1,14,12.17c.74-.2,1.08-.43,1.1-1.26A2,2,0,1,1,19,11c0,.78.28,1.12,1,1.19a5.08,5.08,0,0,1,.82.24c.91.21,1.24.64,1.16,1.69a6.54,6.54,0,0,0,5.48,7.11c1.07.19,1.32.69,1.31,1.61,0,2.19,0,4.39,0,6.59A4.25,4.25,0,0,0,30,32.5c1.16,1.26,2.35,2.49,3.41,3.83a2.23,2.23,0,0,1,.44,1.81c-.15.4-1,.74-1.59.75C27.15,39,22.06,38.92,17,38.92Z"/><path class="cls-1" d="M11.81,41.29H22.34A5.22,5.22,0,0,1,17,46.47,5.12,5.12,0,0,1,11.81,41.29Z"/></g></g></svg>