<svg xmlns="http://www.w3.org/2000/svg" viewBox="0 0 37.63 38.45"><defs><style>.cls-1{fill:#fff;}</style></defs><g id="Layer_2" data-name="Layer 2"><g id="Layer_1-2" data-name="Layer 1"><path class="cls-1" d="M36.86,20.19c-.4-.3-.78-.58-1.14-.87a.34.34,0,0,1-.08-.25c-.08-1-.08-2.09-.23-3.12A16.65,16.65,0,0,0,30.8,6.59a17.09,17.09,0,0,0-9.54-5,18.74,18.74,0,0,0-3.67-.15A17,17,0,0,0,1.42,19.86a16.92,16.92,0,0,0,5.23,11c.06.07.14.13.2.2a.29.29,0,0,0,.37,0c1.83-1,3.65-2.05,5.5-3a1.58,1.58,0,0,0,.9-1.48c0-.57,0-1.14,0-1.72a.41.41,0,0,0-.09-.23,15.6,15.6,0,0,1-1.86-3.72,3.24,3.24,0,0,0-.44-.79,2.49,2.49,0,0,1-.54-1.46c0-.88,0-1.77,0-2.66a2.45,2.45,0,0,1,.43-1.27.83.83,0,0,0,.14-.46c0-1.24,0-2.49.05-3.74A4.82,4.82,0,0,1,14,6.33a7.18,7.18,0,0,1,3.17-.88,14.71,14.71,0,0,1,3.57.12,6.53,6.53,0,0,1,3.38,1.65,5.15,5.15,0,0,1,1.45,2.7,4.76,4.76,0,0,1,.07,1c0,1,0,2.06,0,3.09a1.42,1.42,0,0,0,.25.91,1.5,1.5,0,0,1,.31.94c0,.94,0,1.87,0,2.81a2.32,2.32,0,0,1-1.08,1.93,1,1,0,0,0-.36.42,16.76,16.76,0,0,1-2,3.68.55.55,0,0,0-.09.23c0,.64,0,1.28.07,1.91a2.11,2.11,0,0,0,.24.72.23.23,0,0,1,0,.31c-.88.87-1.76,1.75-2.63,2.63a1,1,0,0,0-.24.41c-.53,1.92-1.06,3.83-1.57,5.75-.05.17-.12.24-.3.24a15.69,15.69,0,0,1-5.84-1,18.17,18.17,0,0,1-10.84-10,18,18,0,0,1-1.35-10A18,18,0,0,1,3.89,7.17,18.11,18.11,0,0,1,15,.35,18.42,18.42,0,0,1,34.71,9.64a17.87,17.87,0,0,1,2.2,7.68c.05.82,0,1.65,0,2.47A2.91,2.91,0,0,1,36.86,20.19Z"/><path class="cls-1" d="M33.76,20.88a1.8,1.8,0,0,1,1.35.56c.66.68,1.35,1.33,2,2a1.85,1.85,0,0,1,.41,1.9,1.27,1.27,0,0,1-.27.48c-1.38,1.44-2.76,2.88-4.16,4.3-2,2-4.06,4-6.08,6.08a1.49,1.49,0,0,1-.62.36c-1.46.4-2.93.81-4.39,1.25a4,4,0,0,0-.85.43.78.78,0,0,1-.79.13.61.61,0,0,1-.25-.92,4.54,4.54,0,0,0,.8-1.91c.34-1.19.65-2.38,1-3.57a.76.76,0,0,1,.17-.32q5.19-5.18,10.41-10.34A1.47,1.47,0,0,1,33.76,20.88ZM26.38,34.93l6.85-6.87-.14-.15L32,26.81l-1.41-1.39c-.13-.13-.23-.14-.34,0l-.13.14L23.66,32l-.1.12Zm7.87-7.81c.62-.65,1.25-1.28,1.85-1.94a.52.52,0,0,0,0-.82,8.6,8.6,0,0,0-.77-.83c-.41-.4-.83-.81-1.27-1.18a.47.47,0,0,0-.75,0l-1.07,1-.87.83ZM25,35.58,22.87,33.5l-.77,2.88Z"/></g></g></svg>