<svg xmlns="http://www.w3.org/2000/svg" viewBox="0 0 71.63 75.93"><g id="Layer_2" data-name="Layer 2"><g id="Layer_1-2" data-name="Layer 1"><path d="M22.88,75.93c-6.26,0-11.48-.77-16.36-3.15-.65-.32-1.27-.71-1.89-1.09A9.23,9.23,0,0,1,.1,62,25.84,25.84,0,0,1,6.2,47.86a2.94,2.94,0,0,1,3.09-1.08,2.94,2.94,0,0,1,2.28,2.45,3.06,3.06,0,0,1-.88,2.66,19,19,0,0,0-4.38,9.56c-.13.87-.19,1.75-.27,2.62a2.1,2.1,0,0,0,.73,1.7,9.3,9.3,0,0,0,2.81,1.82,27.44,27.44,0,0,0,9.52,2.2,34.74,34.74,0,0,0,13.48-1.47,14.41,14.41,0,0,0,4.06-2,3,3,0,0,0,1.28-3,19.93,19.93,0,0,0-4.85-11.74,2.92,2.92,0,0,1,.37-4.29,3,3,0,0,1,4.3.52,24.87,24.87,0,0,1,6.2,16.32,7.72,7.72,0,0,1-2.29,5.66,18,18,0,0,1-7.91,4.49A35.39,35.39,0,0,1,22.88,75.93Z"/><path d="M64.33,14.68a14.64,14.64,0,0,1-29.28,0,14.64,14.64,0,1,1,29.28,0ZM49.71,23.3a8.79,8.79,0,0,0,8.65-8.57A8.71,8.71,0,0,0,49.81,6a8.51,8.51,0,0,0-8.75,8.69C41.06,19.43,44.61,23.11,49.71,23.3Z"/><path d="M21.94,46.76A14.64,14.64,0,1,1,36.63,32.2,14.56,14.56,0,0,1,21.94,46.76Zm.16-23.3A8.67,8.67,0,1,0,22,40.79a8.67,8.67,0,0,0,.07-17.33Z"/><path d="M51.14,58.42H49.77a2.92,2.92,0,0,1-3.06-2.92,2.89,2.89,0,0,1,2.94-3c4.11-.17,8.18-.53,12-2.17a10.62,10.62,0,0,0,3.17-1.93,2.49,2.49,0,0,0,.82-2.12,19.68,19.68,0,0,0-4.74-12,3.07,3.07,0,0,1,.16-4.53,3.12,3.12,0,0,1,4.49.7,24.86,24.86,0,0,1,6.07,16.18,7.7,7.7,0,0,1-2.29,5.66A17.63,17.63,0,0,1,62,56.6,36.36,36.36,0,0,1,51.14,58.42Z"/></g></g></svg>